<?xml version="1.0" encoding="utf-8"?>
<!-- Generator: Adobe Illustrator 16.0.0, SVG Export Plug-In . SVG Version: 6.00 Build 0)  -->
<!DOCTYPE svg PUBLIC "-//W3C//DTD SVG 1.1//EN" "http://www.w3.org/Graphics/SVG/1.1/DTD/svg11.dtd">
<svg version="1.1" id="Layer_1" xmlns="http://www.w3.org/2000/svg" xmlns:xlink="http://www.w3.org/1999/xlink" x="0px" y="0px"
	 width="400px" height="400px" viewBox="0 0 400 400" enable-background="new 0 0 400 400" xml:space="preserve">
<g>
	<path fill="#61dafb" d="M12.674,222.271c35.248,0,69.681,0,104.114,0.002c0.948,0,1.91,0.125,2.844,0.016
		c13.759-1.6,22.665-1.609,31.404,12.32c24.649,39.287,82.614,37.24,103.325-4.637c2.992-6.054,6.222-7.873,12.668-7.82
		c37.318,0.281,74.646,0.106,111.969,0.127c2.784,0.002,5.568,0.283,8.328,0.431c-2.601,70.534-66.789,163.243-181.749,166.565
		C92.038,392.563,17.639,304.367,12.674,222.271z"/>
	<path fill="#61dafb" d="M386.693,170.128c-42.889,0-84.933,0.094-126.969-0.222c-2.67-0.021-6.181-2.618-7.844-5.025
		c-26.971-39.061-76.5-38.922-103.786,0.32c-1.542,2.218-4.695,4.7-7.116,4.717c-42.356,0.286-84.716,0.207-127.12,0.207
		c5.13-66.492,66.878-155.271,179.644-159.353C302.28,6.833,377.543,87.982,386.693,170.128z"/>
	<path fill="#61dafb" d="M199.8,163.705c20.404-0.111,36.304,15.349,36.585,35.579c0.295,20.896-15.322,36.934-36.062,37.032
		c-20.887,0.104-36.669-15.658-36.563-36.521C163.865,179.323,179.346,163.818,199.8,163.705z"/>
</g>
</svg>
