<?xml version="1.0" encoding="utf-8"?>
<!-- Generator: Adobe Illustrator 16.0.0, SVG Export Plug-In . SVG Version: 6.00 Build 0)  -->
<!DOCTYPE svg PUBLIC "-//W3C//DTD SVG 1.1//EN" "http://www.w3.org/Graphics/SVG/1.1/DTD/svg11.dtd">
<svg version="1.1" id="Layer_1" xmlns="http://www.w3.org/2000/svg" xmlns:xlink="http://www.w3.org/1999/xlink" x="0px" y="0px"
	 width="400px" height="400px" viewBox="0 0 400 400" enable-background="new 0 0 400 400" xml:space="preserve">
<g>
	<path fill="#FFFFFF" d="M12.674,219.271c35.248,0,69.681,0,104.114,0.002c0.948,0,1.91,0.125,2.844,0.016
		c13.759-1.6,22.665,1.391,31.404,15.32c24.649,39.287,82.614,34.24,103.325-7.637c2.992-6.052,6.222-7.873,12.668-7.82
		c37.32,0.281,74.646,0.108,111.969,0.127c2.784,0.002,5.568,0.283,8.328,0.431c-2.599,70.534-66.789,166.243-181.749,169.565
		C92.038,392.563,17.639,301.367,12.674,219.271z"/>
	<path fill="#FFFFFF" d="M386.693,173.128c-42.887,0-84.931,0.094-126.969-0.222c-2.67-0.021-6.179-2.618-7.842-5.025
		c-26.971-39.061-76.5-38.922-103.786,0.32c-1.542,2.218-4.695,4.7-7.116,4.717c-42.356,0.286-84.716,0.207-127.12,0.207
		C18.99,106.633,80.738,14.854,193.504,10.772C302.28,6.833,377.543,90.982,386.693,173.128z"/>
	<path fill="#FFFFFF" d="M199.8,163.705c20.404-0.111,36.304,15.349,36.585,35.579c0.295,20.896-15.322,36.934-36.062,37.032
		c-20.887,0.105-36.669-15.658-36.563-36.52C163.865,179.323,179.346,163.818,199.8,163.705z M222.152,200.477
		c0.254-12.317-9.586-22.507-21.857-22.636c-12.145-0.129-22.442,10.048-22.443,22.181c-0.002,11.787,9.633,21.71,21.51,22.158
		C211.544,222.636,221.898,212.775,222.152,200.477z"/>
</g>
</svg>
