<?xml version="1.0" encoding="iso-8859-1"?>
<!-- Generator: Adobe Illustrator 19.0.0, SVG Export Plug-In . SVG Version: 6.00 Build 0)  -->
<svg version="1.1" id="Layer_1" xmlns="http://www.w3.org/2000/svg" xmlns:xlink="http://www.w3.org/1999/xlink" x="0px" y="0px"
	 viewBox="0 0 423.642 423.642" style="enable-background:new 0 0 423.642 423.642;" xml:space="preserve">
<path d="M342.369,37.498h43.755v-30H272.128v113.995h30V46.501c78.268,44.711,113.054,141.985,77.673,227.401
	c-28.973,69.949-96.829,112.248-168.216,112.242c-23.142-0.002-46.667-4.45-69.343-13.842c-44.869-18.586-79.815-53.532-98.4-98.401
	c-18.585-44.869-18.585-94.29,0-139.159l-27.717-11.48c-44.696,107.907,6.729,232.059,114.636,276.756
	c26.424,10.945,53.818,16.126,80.784,16.125c83.158-0.001,162.221-49.278,195.972-130.762
	C444.692,195.637,415.368,94.662,342.369,37.498z"/>
<g>
</g>
<g>
</g>
<g>
</g>
<g>
</g>
<g>
</g>
<g>
</g>
<g>
</g>
<g>
</g>
<g>
</g>
<g>
</g>
<g>
</g>
<g>
</g>
<g>
</g>
<g>
</g>
<g>
</g>
</svg>
